<svg xmlns="http://www.w3.org/2000/svg" version="1.1" xmlns:xlink="http://www.w3.org/1999/xlink" xmlns:svgjs="http://svgjs.dev/svgjs" width="2000" height="629" viewBox="0 0 2000 629"><g transform="matrix(1,0,0,1,0.21393656412772089,-0.7347790669586516)"><svg viewBox="0 0 375 118" data-background-color="#ffffff" preserveAspectRatio="xMidYMid meet" height="629" width="2000" xmlns="http://www.w3.org/2000/svg" xmlns:xlink="http://www.w3.org/1999/xlink"><g id="tight-bounds" transform="matrix(1,0,0,1,-0.03987346649171286,0.13784408569335938)"><svg viewBox="0 0 375.07952880859375 117.72431182861328" height="117.72431182861328" width="375.07952880859375"><rect width="375.0799865722656" height="117.72431182861328" fill="url(#b16555ff-6702-445e-8ee0-c76da81db9f0)" mask="url(&quot;#5d2823d6-7e6b-4c62-ba88-dbb56f6d52e0&quot;)" data-fill-palette-color="secondary"></rect><g><svg></svg></g><g><svg viewBox="0 0 375.07952880859375 117.72431182861328" height="117.72431182861328" width="375.07952880859375"><g transform="matrix(1,0,0,1,-10.220239639282227,-68.96477508544922)"><path xmlns="http://www.w3.org/2000/svg" d="M10.22 178.235v-109.27h375.08v109.27l-199.512 0 0-3.774h195.738v-101.722h-367.532v101.722l20.155 0 0 3.774z" fill="#000000" fill-rule="nonzero" stroke="none" stroke-width="1" stroke-linecap="butt" stroke-linejoin="miter" stroke-miterlimit="10" stroke-dasharray="" stroke-dashoffset="0" font-family="none" font-weight="none" font-size="none" text-anchor="none" style="mix-blend-mode: normal" data-fill-palette-color="tertiary"></path><g></g></g><g transform="matrix(1,0,0,1,29.331764404296877,37.83246144712545)"><svg viewBox="0 0 316.416 42.05938893436237" height="42.05938893436237" width="316.416"><g><svg viewBox="0 0 384.3352181277932 51.08750638529611" height="42.05938893436237" width="316.416"><g><rect width="4.584203032967755" height="51.08750638529611" x="51.33448359490986" y="0" fill="#000000" opacity="1" stroke-width="0" stroke="transparent" fill-opacity="1" class="rect-o-0" data-fill-palette-color="primary" rx="1%" id="o-0" data-palette-color="#000000"></rect></g><g transform="matrix(1,0,0,1,67.91921812779321,0.12708334921715192)"><svg viewBox="0 0 316.416 50.833339686861805" height="50.833339686861805" width="316.416"><g id="textblocktransform"><svg viewBox="0 0 316.416 50.833339686861805" height="50.833339686861805" width="316.416" id="textblock"><g><svg viewBox="0 0 316.416 50.833339686861805" height="50.833339686861805" width="316.416"><g transform="matrix(1,0,0,1,0,0)"><svg width="316.416" viewBox="1.100000023841858 -34.5 220.33999633789062 35.400001525878906" height="50.833339686861805" data-palette-color="#000000"><path d="M37.2-3.5L41.65-2.75 41.6 0 22.75 0 22.45-1.6Q24.3-3 26.7-4.2L26.7-4.2 26.7-14.05 15.85-14.05 15.85-3.5 20.3-2.75 20.25 0 1.4 0 1.1-1.6Q2.95-3 5.35-4.2L5.35-4.2 5.35-29.9 1.5-30.55 1.55-33.3 19.8-33.3 20.1-31.7Q18.25-30.3 15.85-29.1L15.85-29.1 15.85-19.15 26.7-19.15 26.7-29.9 22.85-30.55 22.9-33.3 41.15-33.3 41.45-31.7Q39.6-30.3 37.2-29.1L37.2-29.1 37.2-3.5ZM75.55-3.35L79.1-2.75 79.05 0 60.95 0 60.65-1.6Q62.4-2.95 64.4-3.95L64.4-3.95 62.85-8.1 52.65-8.1 50.9-3.45 54.95-2.75 54.9 0 40.55 0 40.25-1.6Q41.95-2.95 44.45-4.2L44.45-4.2 54.8-29.9 53.95-32.25 63.05-34.5 75.55-3.35ZM54.35-12.7L61.15-12.7 57.75-21.95 54.35-12.7ZM111-3.25L113.95-2.75 113.9 0 101.5 0 95.05-12.45 92.65-12.4 92.65-3.4 96.4-2.75 96.35 0 78.2 0 77.9-1.6Q79.75-3 82.15-4.2L82.15-4.2 82.15-29.9 78.35-30.55 78.4-33.3 96.35-33.7Q102.6-33.7 106.65-30.68 110.7-27.65 110.7-23L110.7-23Q110.7-20.1 109-17.7 107.3-15.3 104.4-13.9L104.4-13.9 111-3.25ZM92.65-28.1L92.65-17.5Q93.85-17.15 95-17.15L95-17.15Q100.1-17.15 100.1-22.75L100.1-22.75Q100.1-26.55 98-28.85L98-28.85 92.65-28.1ZM162.94-33.3L163.24-31.7Q161.69-30.45 159.59-29.4L159.59-29.4 151.14-0.1Q147.84 0.5 142.39 0.9L142.39 0.9 137.19-15.15 135.94-9.25 133.14-0.1Q129.84 0.5 124.39 0.9L124.39 0.9 114.14-29.95 110.79-30.55 110.84-33.3 128.39-33.3 128.69-31.7Q127.04-30.4 124.79-29.25L124.79-29.25 128.74-14.7 128.99-7.2 129.29-7.2 134.19-24.35 131.99-31.15 141.74-33.2 146.74-15.75 147.14-7.2 147.19-7.2 153.29-29.75 148.64-30.55 148.69-33.3 162.94-33.3ZM177.89-3.5L182.34-2.75 182.29 0 163.44 0 163.14-1.6Q164.99-3 167.39-4.2L167.39-4.2 167.39-29.9 163.54-30.55 163.59-33.3 181.84-33.3 182.14-31.7Q180.29-30.3 177.89-29.1L177.89-29.1 177.89-3.5ZM221.14-33.3L221.44-31.7Q219.79-30.4 217.54-29.25L217.54-29.25 217.19 0 208.24 0.7 194.24-19.95 194.89-14 194.89-3.5 199.29-2.75 199.24 0 183.84 0 183.54-1.6Q185.39-3 187.79-4.2L187.79-4.2 187.79-29.8 184.04-30.55 184.09-33.3 197.39-33.3 197.39-33.25 211.19-12.35 210.49-18.5 210.49-29.7 205.59-30.55 205.64-33.3 221.14-33.3Z" opacity="1" transform="matrix(1,0,0,1,0,0)" fill="#000000" class="undefined-text-0" data-fill-palette-color="primary" id="text-0"></path></svg></g></svg></g></svg></g></svg></g><g transform="matrix(1,0,0,1,0,0.12708334921715547)"><svg viewBox="0 0 39.333952094994274 50.8333396868618" height="50.8333396868618" width="39.333952094994274"><g><svg xmlns="http://www.w3.org/2000/svg" xmlns:xlink="http://www.w3.org/1999/xlink" version="1.1" x="0" y="0" viewBox="12.982999801635742 1 75.68599700927734 97.81300354003906" enable-background="new 0 0 100 100" xml:space="preserve" height="50.8333396868618" width="39.333952094994274" class="icon-icon-0" data-fill-palette-color="accent" id="icon-0"><g fill="#000000" data-fill-palette-color="accent"><polygon fill-rule="evenodd" clip-rule="evenodd" points="12.983,10.59 30.001,98.813 24.129,39.764 53.15,37.872 53.096,27.989    64.549,1 53.622,18.977  " fill="#000000" data-fill-palette-color="accent"></polygon><polygon fill-rule="evenodd" clip-rule="evenodd" points="59.389,54.548 64.549,1.007 55.809,40.723 36.197,41.768 37.767,62.23    30.001,98.813 42.058,58.914  " fill="#000000" data-fill-palette-color="accent"></polygon><polygon fill-rule="evenodd" clip-rule="evenodd" points="62.8,67.182 63.349,56.729 47.37,60.484 47.338,72.281 30.001,98.813    51.681,71.197  " fill="#000000" data-fill-palette-color="accent"></polygon><polygon fill-rule="evenodd" clip-rule="evenodd" points="65.711,62.394 80.552,57.663 82.061,45.131 66.162,47.226  " fill="#000000" data-fill-palette-color="accent"></polygon><polygon fill-rule="evenodd" clip-rule="evenodd" points="72.07,44.502 83.058,43.085 84.639,32.807 76.56,32.434 64.549,1    72.979,31.967  " fill="#000000" data-fill-palette-color="accent"></polygon><polygon fill-rule="evenodd" clip-rule="evenodd" points="87.413,31.294 88.669,21.788 79.125,19.094 64.549,1 79.032,23.437    78.61,30.437  " fill="#000000" data-fill-palette-color="accent"></polygon></g></svg></g></svg></g></svg></g></svg></g></svg></g><defs></defs><mask id="5d2823d6-7e6b-4c62-ba88-dbb56f6d52e0"><g id="SvgjsG1572"><svg viewBox="0 0 375.07952880859375 117.72431182861328" height="117.72431182861328" width="375.07952880859375"><g><svg></svg></g><g><svg viewBox="0 0 375.07952880859375 117.72431182861328" height="117.72431182861328" width="375.07952880859375"><g transform="matrix(1,0,0,1,-10.220239639282227,-68.96477508544922)"><g><path xmlns="http://www.w3.org/2000/svg" d="M49.808 182.069h-1.373c-1.061 0-1.819-0.237-2.275-0.711-0.459-0.471-0.689-1.193-0.689-2.166v0-13.25h3.051v13.751h1.286zM56.019 182.33v0c-1.569 0-2.821-0.498-3.757-1.495-0.939-0.994-1.408-2.486-1.408-4.476v0c0-2.034 0.411-3.542 1.233-4.524 0.819-0.979 2.028-1.469 3.627-1.469v0c1.598 0 2.808 0.49 3.631 1.469 0.819 0.982 1.229 2.49 1.229 4.524v0 0.741h-6.538v0.719c0 0.639 0.196 1.151 0.588 1.534 0.392 0.386 0.93 0.58 1.613 0.58v0c0.567 0 1.05-0.128 1.451-0.383 0.398-0.253 0.764-0.604 1.099-1.055v0l1.547 1.809c-0.465 0.625-1.056 1.119-1.774 1.482-0.721 0.363-1.568 0.545-2.541 0.544zM55.714 172.654v0c-1.119 0-1.678 0.654-1.678 1.962v0 0.697h3.356v-0.697c0-1.308-0.559-1.961-1.678-1.962zM67.962 182.069h-1.853c-1.046 0-1.806-0.232-2.279-0.697-0.471-0.465-0.706-1.206-0.706-2.223v0-6.146h-1.439v-2.376h0.698c0.407 0 0.683-0.087 0.828-0.261 0.145-0.174 0.218-0.458 0.218-0.85v0-1.983h2.746v3.094h2.005v2.376h-2.005v6.69h1.787zM72.713 172.916h-2.703v-6.974h2.703zM78.945 182.33v0c-1.874 0-3.371-0.676-4.489-2.026v0l1.809-1.809c0.697 0.988 1.613 1.482 2.746 1.482v0c0.973 0 1.46-0.392 1.46-1.177v0c0-0.305-0.076-0.542-0.227-0.711-0.154-0.166-0.405-0.285-0.754-0.357v0l-1.155-0.218c-1.235-0.232-2.124-0.622-2.667-1.168-0.546-0.543-0.819-1.316-0.82-2.319v0c0-1.206 0.356-2.118 1.068-2.737 0.712-0.616 1.751-0.924 3.117-0.924v0c0.915 0 1.712 0.141 2.388 0.423 0.674 0.285 1.265 0.718 1.774 1.299v0l-1.743 1.787c-0.654-0.77-1.453-1.155-2.398-1.155v0c-0.886 0-1.329 0.392-1.329 1.176v0c0 0.32 0.08 0.559 0.24 0.72 0.16 0.16 0.421 0.276 0.784 0.348v0l1.199 0.218c1.206 0.218 2.075 0.584 2.606 1.099 0.529 0.517 0.793 1.255 0.794 2.214v0c0 1.235-0.385 2.182-1.155 2.842-0.77 0.663-1.852 0.994-3.248 0.993zM99.518 182.962v0c0 0.596-0.087 1.126-0.261 1.591-0.174 0.465-0.475 0.857-0.902 1.177-0.43 0.32-1.008 0.559-1.735 0.719-0.726 0.16-1.642 0.24-2.746 0.24v0c-0.944 0-1.729-0.061-2.354-0.183-0.625-0.125-1.129-0.301-1.512-0.527-0.386-0.224-0.66-0.503-0.82-0.837-0.16-0.334-0.24-0.712-0.239-1.133v0c0-0.552 0.167-0.991 0.501-1.317 0.334-0.328 0.821-0.543 1.46-0.645v0-0.458c-0.552-0.102-0.952-0.327-1.199-0.675-0.247-0.349-0.37-0.77-0.37-1.264v0c0-0.262 0.055-0.494 0.166-0.698 0.108-0.203 0.253-0.378 0.435-0.523 0.18-0.145 0.386-0.269 0.619-0.37 0.232-0.102 0.472-0.182 0.719-0.24v0-0.305c-0.639-0.305-1.104-0.734-1.394-1.286-0.291-0.552-0.436-1.22-0.436-2.005v0c0-1.206 0.349-2.15 1.046-2.833 0.697-0.683 1.838-1.024 3.421-1.024v0c0.305 0 0.607 0.025 0.907 0.074 0.296 0.052 0.575 0.122 0.837 0.209v0-0.414c0-0.581 0.138-1.01 0.414-1.286 0.276-0.276 0.668-0.414 1.177-0.414v0h1.634v2.289h-2.31v0.348c0.596 0.247 1.05 0.632 1.365 1.155 0.311 0.523 0.466 1.155 0.466 1.896v0c0 1.191-0.349 2.124-1.046 2.799-0.697 0.677-1.845 1.016-3.444 1.015v0c-0.363 0-0.7-0.019-1.011-0.056-0.314-0.035-0.616-0.089-0.906-0.162v0c-0.232 0.203-0.349 0.53-0.349 0.981v0c0 0.291 0.092 0.509 0.275 0.654 0.18 0.145 0.488 0.218 0.924 0.218v0h3.072c1.293 0 2.216 0.286 2.768 0.858 0.552 0.575 0.828 1.386 0.828 2.432zM96.663 183.355v0c0-0.349-0.119-0.617-0.357-0.807-0.241-0.189-0.638-0.283-1.19-0.283v0h-3.552c-0.102 0.145-0.177 0.312-0.227 0.501-0.052 0.189-0.078 0.385-0.078 0.589v0c0 0.421 0.15 0.741 0.449 0.959 0.296 0.218 0.844 0.327 1.643 0.327v0h1.22c0.799 0 1.348-0.109 1.648-0.327 0.296-0.218 0.445-0.538 0.444-0.959zM93.917 176.01v0c0.596 0 1.021-0.138 1.278-0.414 0.253-0.276 0.379-0.683 0.379-1.22v0-0.349c0-0.538-0.126-0.944-0.379-1.22-0.256-0.276-0.681-0.414-1.278-0.414v0c-0.596 0-1.02 0.138-1.272 0.414-0.256 0.276-0.384 0.683-0.384 1.22v0 0.349c0 0.538 0.128 0.944 0.384 1.22 0.253 0.276 0.677 0.414 1.272 0.414zM105.185 182.33v0c-1.569 0-2.821-0.498-3.758-1.495-0.939-0.994-1.408-2.486-1.407-4.476v0c0-2.034 0.411-3.542 1.233-4.524 0.819-0.979 2.028-1.469 3.626-1.469v0c1.598 0 2.808 0.49 3.631 1.469 0.819 0.982 1.229 2.49 1.229 4.524v0 0.741h-6.538v0.719c0 0.639 0.196 1.151 0.589 1.534 0.392 0.386 0.93 0.58 1.612 0.58v0c0.567 0 1.05-0.128 1.452-0.383 0.398-0.253 0.764-0.604 1.098-1.055v0l1.548 1.809c-0.465 0.625-1.056 1.119-1.774 1.482-0.721 0.363-1.568 0.545-2.541 0.544zM104.879 172.654v0c-1.119 0-1.678 0.654-1.678 1.962v0 0.697h3.357v-0.697c0-1.308-0.559-1.961-1.679-1.962zM117.127 182.069h-1.852c-1.046 0-1.804-0.232-2.275-0.697-0.474-0.465-0.71-1.206-0.711-2.223v0-6.146h-1.438v-2.376h0.697c0.407 0 0.683-0.087 0.828-0.261 0.145-0.174 0.218-0.458 0.218-0.85v0-1.983h2.746v3.094h2.005v2.376h-2.005v6.69h1.787zM125.343 169.233v0c-0.625 0-1.078-0.135-1.36-0.406-0.285-0.267-0.427-0.633-0.427-1.098v0-0.48c0-0.465 0.142-0.831 0.427-1.098 0.282-0.27 0.735-0.405 1.36-0.405v0c0.625 0 1.079 0.135 1.365 0.405 0.282 0.267 0.423 0.633 0.422 1.098v0 0.48c0 0.465-0.141 0.831-0.422 1.098-0.285 0.27-0.74 0.405-1.365 0.406zM123.818 182.069v-11.442h3.051v11.442zM134.911 182.069h-1.853c-1.046 0-1.804-0.232-2.275-0.697-0.474-0.465-0.71-1.206-0.711-2.223v0-6.146h-1.438v-2.376h0.698c0.407 0 0.683-0.087 0.828-0.261 0.145-0.174 0.218-0.458 0.218-0.85v0-1.983h2.746v3.094h2.005v2.376h-2.005v6.69h1.787zM145.807 182.33v0c-1.598 0-2.808-0.487-3.631-1.46-0.819-0.973-1.229-2.477-1.229-4.511v0c0-2.034 0.41-3.542 1.229-4.524 0.822-0.979 2.033-1.469 3.631-1.469v0c1.598 0 2.807 0.49 3.627 1.469 0.822 0.982 1.234 2.49 1.233 4.524v0c0 2.034-0.411 3.538-1.233 4.511-0.819 0.973-2.028 1.46-3.627 1.46zM145.807 179.911v0c1.119 0 1.678-0.654 1.678-1.961v0-3.204c0-1.308-0.559-1.961-1.678-1.961v0c-1.119 0-1.678 0.654-1.678 1.961v0 3.204c0 1.308 0.559 1.961 1.678 1.961zM155.723 182.069h-3.051v-11.442h3.051v1.94h0.349c0.087-0.305 0.203-0.588 0.349-0.85 0.145-0.262 0.327-0.494 0.544-0.697 0.218-0.203 0.472-0.363 0.763-0.48 0.291-0.116 0.625-0.174 1.003-0.174v0c1.032 0 1.819 0.344 2.362 1.033 0.546 0.692 0.819 1.655 0.819 2.89v0 7.78h-3.051v-7.192c0-1.351-0.472-2.027-1.416-2.027v0c-0.465 0-0.867 0.141-1.208 0.423-0.343 0.285-0.514 0.681-0.514 1.19v0zM166.99 177.383h-1.373l-0.915-6.276v-4.25h3.182v4.25zM166.293 182.33v0c-0.654 0-1.119-0.138-1.395-0.414-0.276-0.276-0.414-0.647-0.414-1.111v0-0.654c0-0.465 0.138-0.835 0.414-1.111 0.276-0.276 0.741-0.414 1.395-0.414v0c0.654 0 1.119 0.138 1.395 0.414 0.276 0.276 0.414 0.647 0.414 1.111v0 0.654c0 0.465-0.138 0.835-0.414 1.111-0.276 0.276-0.741 0.414-1.395 0.414zM173.354 177.383h-1.373l-0.915-6.276v-4.25h3.181v4.25zM172.657 182.33v0c-0.654 0-1.119-0.138-1.395-0.414-0.276-0.276-0.414-0.647-0.414-1.111v0-0.654c0-0.465 0.138-0.835 0.414-1.111 0.276-0.276 0.741-0.414 1.395-0.414v0c0.654 0 1.119 0.138 1.394 0.414 0.276 0.276 0.414 0.647 0.414 1.111v0 0.654c0 0.465-0.138 0.835-0.414 1.111-0.276 0.276-0.741 0.414-1.394 0.414z" fill="white" fill-rule="nonzero" stroke="none" stroke-width="1" stroke-linecap="butt" stroke-linejoin="miter" stroke-miterlimit="10" stroke-dasharray="" stroke-dashoffset="0" font-family="none" font-weight="none" font-size="none" text-anchor="none" style="mix-blend-mode: normal"></path></g></g><g transform="matrix(1,0,0,1,29.331764404296877,37.83246144712545)"><svg viewBox="0 0 316.416 42.05938893436237" height="42.05938893436237" width="316.416"><g><svg viewBox="0 0 384.3352181277932 51.08750638529611" height="42.05938893436237" width="316.416"><g></g><g transform="matrix(1,0,0,1,67.91921812779321,0.12708334921715192)"><svg viewBox="0 0 316.416 50.833339686861805" height="50.833339686861805" width="316.416"><g id="SvgjsG1570"><svg viewBox="0 0 316.416 50.833339686861805" height="50.833339686861805" width="316.416" id="SvgjsSvg1569"><g><svg viewBox="0 0 316.416 50.833339686861805" height="50.833339686861805" width="316.416"><g transform="matrix(1,0,0,1,0,0)"><svg width="316.416" viewBox="1.100000023841858 -34.5 220.33999633789062 35.400001525878906" height="50.833339686861805" data-palette-color="#000000"></svg></g></svg></g></svg></g></svg></g><g transform="matrix(1,0,0,1,0,0.12708334921715547)"><svg viewBox="0 0 39.333952094994274 50.8333396868618" height="50.8333396868618" width="39.333952094994274"><g><svg xmlns="http://www.w3.org/2000/svg" xmlns:xlink="http://www.w3.org/1999/xlink" version="1.1" x="0" y="0" viewBox="12.982999801635742 1 75.68599700927734 97.81300354003906" enable-background="new 0 0 100 100" xml:space="preserve" height="50.8333396868618" width="39.333952094994274" class="icon-icon-0" data-fill-palette-color="accent" id="SvgjsSvg1567"></svg></g></svg></g></svg></g></svg></g></svg></g><defs></defs></svg></g></mask><linearGradient x1="0" x2="1" y1="0.5" y2="0.5" id="b16555ff-6702-445e-8ee0-c76da81db9f0"><stop stop-color="#f00b51" offset="0"></stop><stop stop-color="#730062" offset="1"></stop></linearGradient></svg><rect width="375.07952880859375" height="117.72431182861328" fill="none" stroke="none" visibility="hidden"></rect></g></svg></g></svg>